# Blender v2.92.0 OBJ File: ''
# www.blender.org
mtllib untitled.mtl
o Cube
v 0.983044 0.719112 -0.681064
v 0.503749 -0.561289 -0.484190
v 0.889232 0.736316 0.648084
v 0.473656 -0.555504 0.514398
v -0.283287 1.083177 -0.775218
v -0.473656 -0.444497 -0.514398
v -0.377099 1.100381 0.553930
v -0.503749 -0.438711 0.484190
v 1.858576 2.756478 0.210046
v 0.574015 2.992305 0.149042
v 1.919331 2.744034 -1.120241
v 0.634771 2.979861 -1.181245
v 1.106026 5.438800 -0.647387
v 0.136298 5.360208 -0.627183
v 1.085667 5.431688 -1.645496
v 0.115940 5.353096 -1.625292
v -0.598113 -0.550361 -0.015314
v 0.015255 -0.612501 -0.608852
v 0.683782 -0.071860 -0.614116
v -0.608039 0.175840 0.598225
v 0.622946 -0.060268 0.659292
v -0.547203 0.164247 -0.675183
v 0.238476 0.921574 0.850222
v 1.173575 0.659452 0.001164
v -0.015255 -0.606635 0.608852
v -0.567630 1.160041 -0.128298
v 0.367469 0.897919 -0.977356
v 0.598113 -0.668775 0.015314
v 1.204904 2.876724 0.428972
v 2.129809 2.706038 -0.443659
v 0.363538 3.030301 -0.527540
v 1.288443 2.859614 -1.400172
v 0.193010 1.961642 0.405356
v 0.287993 1.945262 -0.924007
v 1.557778 1.576696 -0.828700
v 1.462795 1.593076 0.500663
v 0.539415 5.614806 -0.583069
v 1.113948 5.674605 -1.207977
v -0.068292 5.546427 -1.174991
v 0.506241 5.606226 -1.799900
v 1.614174 4.326936 -1.499517
v 1.607907 4.336612 -0.225763
v 0.371382 4.361259 -0.232232
v 0.377649 4.351582 -1.505986
v 0.002417 2.022558 -0.277195
v -0.003313 0.049034 0.868227
v -0.809586 0.201027 -0.049287
v -0.000000 -0.839506 -0.000000
v 0.885329 -0.118652 0.033395
v 0.079056 0.033341 -0.884119
v 1.834853 4.351820 -0.867771
v 1.748371 1.515779 -0.146149
v 0.940695 1.757907 -1.125609
v 0.810093 1.780430 0.702265
v 0.337827 6.060808 -1.307210
v 0.133320 4.378683 -0.874853
v 0.980685 4.371900 0.005068
v 0.987489 4.358603 -1.747691
vt 0.812737 0.234871
vt 0.902244 0.218247
vt 0.890289 0.332762
vt 0.800719 0.349337
vt 0.301218 0.651371
vt 0.246039 0.670851
vt 0.187162 0.553257
vt 0.242367 0.533613
vt 0.956138 0.300770
vt 0.947260 0.438770
vt 0.882182 0.467615
vt 0.793511 0.487649
vt 0.142996 0.869812
vt 0.119457 0.808785
vt 0.184308 0.805871
vt 0.196579 0.883332
vt 0.090072 0.705349
vt 0.158330 0.692980
vt 0.269363 0.790721
vt 0.260998 0.864751
vt 0.909177 0.000000
vt 0.949813 0.070272
vt 0.887122 0.096510
vt 0.853050 0.004568
vt 0.968106 0.186420
vt 0.802522 0.117117
vt 0.794633 0.037034
vt 0.328481 0.867346
vt 0.387547 0.853800
vt 0.369163 0.916926
vt 0.301218 0.921406
vt 0.447296 0.876077
vt 0.447296 0.932394
vt 0.424887 0.995959
vt 0.360966 1.000000
vt 0.306072 0.987228
vt 0.647914 0.851226
vt 0.636699 0.786096
vt 0.700602 0.809115
vt 0.698349 0.878034
vt 0.634720 0.684694
vt 0.702845 0.710284
vt 0.793511 0.718681
vt 0.787292 0.819217
vt 0.765064 0.877582
vt 0.570048 0.010300
vt 0.590385 0.088897
vt 0.524371 0.088415
vt 0.514899 0.000000
vt 0.569758 0.210261
vt 0.500136 0.203254
vt 0.411788 0.183893
vt 0.439031 0.078697
vt 0.451196 0.011460
vt 0.747576 0.452100
vt 0.657442 0.440234
vt 0.665041 0.223196
vt 0.749977 0.242886
vt 0.590385 0.417546
vt 0.602051 0.209613
vt 0.639289 0.068275
vt 0.694778 0.049645
vt 0.753962 0.094360
vt 0.679834 0.598025
vt 0.770559 0.606367
vt 0.357200 0.162476
vt 0.355837 0.304055
vt 0.301218 0.282475
vt 0.611707 0.572268
vt 0.444409 0.323706
vt 0.514302 0.330955
vt 0.491817 0.472078
vt 0.423064 0.473636
vt 0.334073 0.462816
vt 0.099239 0.575685
vt 0.030720 0.588309
vt 0.000000 0.431557
vt 0.067664 0.427756
vt 0.156278 0.414093
vt 0.476105 0.796604
vt 0.553571 0.812466
vt 0.554066 0.853800
vt 0.454223 0.816292
vt 0.827055 0.831459
vt 0.855965 0.791598
vt 0.922802 0.797215
vt 0.907618 0.867535
vt 0.260308 0.000000
vt 0.301218 0.071813
vt 0.250463 0.104345
vt 0.200966 0.068918
vt 0.731007 0.000000
vt 0.793511 0.075085
vt 0.903854 0.644266
vt 0.819879 0.666146
vt 0.964544 0.619380
vt 0.968106 0.755045
vt 0.117784 0.232978
vt 0.201526 0.235870
vt 0.054022 0.226105
vt 0.136202 0.083827
vt 0.485219 0.663938
vt 0.398765 0.664294
vt 0.546823 0.646700
vt 0.590385 0.769978
vn -0.7934 0.4554 -0.4038
vn -0.7816 0.5632 0.2680
vn -0.8751 0.3899 0.2866
vn -0.8914 0.2090 -0.4022
vn 0.2287 -0.3510 0.9080
vn 0.2906 -0.0718 0.9542
vn -0.3893 0.1340 0.9113
vn -0.3926 -0.2856 0.8743
vn -0.9375 -0.2319 0.2593
vn -0.9240 0.2509 0.2885
vn -0.8931 0.2023 -0.4017
vn -0.9137 -0.2386 -0.3289
vn -0.3877 -0.8682 -0.3097
vn 0.2276 -0.9276 -0.2962
vn 0.2118 -0.9249 0.3157
vn -0.4025 -0.8656 0.2978
vn 0.8642 -0.4185 -0.2792
vn 0.8899 -0.3516 -0.2905
vn 0.8665 -0.2940 0.4034
vn 0.8430 -0.4069 0.3519
vn -0.3265 -0.3126 -0.8920
vn -0.3081 -0.0077 -0.9513
vn 0.3685 -0.2183 -0.9036
vn 0.2980 -0.3770 -0.8770
vn 0.9072 0.2447 0.3422
vn 0.9454 0.0984 -0.3106
vn 0.8713 0.3883 -0.3001
vn 0.8248 0.4993 0.2653
vn 0.7907 -0.4607 0.4032
vn 0.7783 -0.5680 -0.2675
vn 0.8902 -0.3526 -0.2884
vn 0.8946 -0.1949 0.4022
vn 0.3161 -0.3623 -0.8768
vn -0.2888 0.0268 -0.9570
vn -0.3306 -0.1254 -0.9354
vn 0.3321 -0.3248 -0.8856
vn -0.3166 0.3613 0.8771
vn 0.2885 -0.0278 0.9571
vn 0.3294 0.1185 0.9367
vn -0.3271 0.3390 0.8821
vn 0.4088 0.7587 -0.5073
vn -0.6723 0.4684 -0.5733
vn -0.5651 0.6525 0.5048
vn 0.3453 0.8495 0.3988
vn -0.9042 -0.2479 -0.3479
vn -0.9456 -0.0652 0.3188
vn -0.9387 -0.0817 0.3351
vn -0.9155 -0.2556 -0.3107
vn -0.3624 0.2018 0.9099
vn 0.3483 0.3019 0.8875
vn 0.2895 0.4744 0.8313
vn -0.3269 0.2951 0.8978
vn 0.3688 -0.1440 -0.9183
vn -0.3509 -0.2776 -0.8943
vn -0.3372 -0.1818 -0.9237
vn 0.3253 0.0601 -0.9437
g Cube_Cube_Material
usemtl Material
s off
f 5/1/1 26/2/1 45/3/1 34/4/1
f 26/5/2 7/6/2 33/7/2 45/8/2
f 45/3/3 33/9/3 10/10/3 31/11/3
f 34/4/4 45/3/4 31/11/4 12/12/4
f 4/13/5 21/14/5 46/15/5 25/16/5
f 21/14/6 3/17/6 23/18/6 46/15/6
f 46/15/7 23/18/7 7/6/7 20/19/7
f 25/16/8 46/15/8 20/19/8 8/20/8
f 8/21/9 20/22/9 47/23/9 17/24/9
f 20/22/10 7/25/10 26/2/10 47/23/10
f 47/23/11 26/2/11 5/1/11 22/26/11
f 17/24/12 47/23/12 22/26/12 6/27/12
f 6/28/13 18/29/13 48/30/13 17/31/13
f 18/29/14 2/32/14 28/33/14 48/30/14
f 48/30/15 28/33/15 4/34/15 25/35/15
f 17/31/16 48/30/16 25/35/16 8/36/16
f 2/37/17 19/38/17 49/39/17 28/40/17
f 19/38/18 1/41/18 24/42/18 49/39/18
f 49/39/19 24/42/19 3/43/19 21/44/19
f 28/40/20 49/39/20 21/44/20 4/45/20
f 6/46/21 22/47/21 50/48/21 18/49/21
f 22/47/22 5/50/22 27/51/22 50/48/22
f 50/48/23 27/51/23 1/52/23 19/53/23
f 18/49/24 50/48/24 19/53/24 2/54/24
f 9/55/25 30/56/25 51/57/25 42/58/25
f 30/56/26 11/59/26 41/60/26 51/57/26
f 51/57/27 41/60/27 15/61/27 38/62/27
f 42/58/28 51/57/28 38/62/28 13/63/28
f 3/43/29 24/42/29 52/64/29 36/65/29
f 24/66/30 1/52/30 35/67/30 52/68/30
f 52/64/31 35/69/31 11/59/31 30/56/31
f 36/65/32 52/64/32 30/56/32 9/55/32
f 1/52/33 27/51/33 53/70/33 35/67/33
f 27/51/34 5/50/34 34/71/34 53/70/34
f 53/70/35 34/71/35 12/72/35 32/73/35
f 35/67/36 53/70/36 32/73/36 11/74/36
f 7/6/37 23/18/37 54/75/37 33/7/37
f 23/18/38 3/17/38 36/76/38 54/75/38
f 54/75/39 36/76/39 9/77/39 29/78/39
f 33/7/40 54/75/40 29/78/40 10/79/40
f 15/80/41 40/81/41 55/82/41 38/83/41
f 40/84/42 16/85/42 39/86/42 55/87/42
f 55/88/43 39/89/43 14/90/43 37/91/43
f 38/62/44 55/92/44 37/93/44 13/63/44
f 12/12/45 31/11/45 56/94/45 44/95/45
f 31/11/46 10/10/46 43/96/46 56/94/46
f 56/94/47 43/96/47 14/97/47 39/86/47
f 44/95/48 56/94/48 39/86/48 16/85/48
f 10/79/49 29/78/49 57/98/49 43/99/49
f 29/78/50 9/77/50 42/100/50 57/98/50
f 57/98/51 42/100/51 13/101/51 37/91/51
f 43/99/52 57/98/52 37/91/52 14/90/52
f 11/74/53 32/73/53 58/102/53 41/103/53
f 32/73/54 12/72/54 44/104/54 58/102/54
f 58/102/55 44/104/55 16/105/55 40/81/55
f 41/103/56 58/102/56 40/81/56 15/80/56
