#
#
#

mtllib hatchet.mtl


#
# Cube.002_Cube.002_Material Mesh
#
g Cube.002_Cube.002_Material Mesh


#
# Cube.002_Cube.002_Material Mesh_Material
#
usemtl Cube.002_Cube.002_Material Mesh_Material

v 2.561953 -0.025411 -1.284543
v 2.280741 -1.020835 -1.579710
v 2.517929 -1.255567 -1.780987
v 2.897602 -0.021509 -1.482517
v 1.279970 1.252664 -1.251520
v 0.278023 0.975777 -1.528123
v 0.407227 0.711557 13.713978
v 1.409174 0.988444 13.990580
v 0.263865 -0.989257 -3.562439
v 1.261843 -1.263059 -3.855941
v 1.260660 -1.596941 -4.056916
v 0.024033 -1.224724 -3.759685
v 0.261072 1.010441 -3.527750
v -0.020140 0.015017 -3.822918
v -0.359098 0.017879 -4.015193
v 0.020576 1.251937 -3.716723
v 2.260998 1.013525 -3.544650
v 1.258268 1.297042 -3.811532
v 1.256144 1.637689 -4.000805
v 2.497520 1.255758 -3.737653
v 0.245161 -0.951008 -5.768904
v 1.243139 -1.224810 -6.062406
v 2.242294 1.051774 -5.751116
v 1.239565 1.335290 -6.017997
v 2.263790 -0.986172 -3.579338
v 2.540253 0.018966 -3.844554
v 2.875902 0.022869 -4.042529
v 2.500978 -1.220904 -3.780615
v 2.277948 0.978862 -1.545022
v 2.407152 0.714642 13.697079
v 2.691156 -0.289631 13.957556
v 1.277845 1.593311 -1.440794
v 0.037527 1.217274 -1.717095
v 2.409945 -1.285055 13.662392
v 0.242369 1.048689 -5.734216
v 2.245087 -0.947923 -5.785804
v 2.521549 0.057215 -6.051019
v 0.280815 -1.023920 -1.562811
v 0.001560 -0.029361 -1.262907
v -0.337397 -0.026499 -1.455182
v 0.040983 -1.259388 -1.760057
v 2.618376 0.926461 13.698961
v 2.990288 -0.289170 13.955029
v 1.283545 -1.307436 -1.295929
v 1.412748 -1.571656 13.946169
v 0.130764 -0.293581 13.979193
v 0.410019 -1.288140 13.679291
v 1.282360 -1.641318 -1.496904
v 2.514471 1.221095 -1.738025
v -0.038845 0.053266 -6.029384
v -7.072184 1.851631 -5.530919
v -6.794546 1.857112 -5.824510
v -7.234369 1.883267 -7.367708
v -10.069319 1.867354 -6.678483
v -10.065306 1.859150 -6.205231
v -3.306067 -1.781618 -5.251617
v -2.795732 -1.789608 -4.749926
v -3.302481 -1.284404 -4.736873
v -3.795462 -1.789148 -4.856871
v 4.803192 2.182936 -8.379263
v 5.182972 1.539445 -8.393638
v 5.185701 -0.415474 -8.427549
v 3.888561 -1.716282 -8.439103
v -3.332567 -1.727421 -8.378084
v -3.337412 1.742307 -8.317896
v -3.174788 1.905391 -8.316447
v -10.539728 -1.772207 -6.376267
v -11.073431 -1.224651 -6.486857
v -10.541838 -1.767888 -6.625386
v -7.167593 -1.780678 -5.616569
v -7.135221 -1.748766 -7.453593
v -11.076292 0.824041 -6.451319
v -3.336256 1.902318 -8.152245
v -3.306845 1.842173 -4.682637
v 4.059919 1.853536 -4.744886
v 4.701387 -1.778044 -4.813277
v 5.213924 -1.768287 -5.334486
v 5.217585 -1.260387 -4.808679
v 5.198523 -1.736792 -7.151320
v 5.185783 1.818816 -8.009853
v 5.207733 1.773932 -5.420588
v 5.215048 0.555974 -4.777171
v -6.299971 1.849691 -5.356949
v -6.738047 1.458747 -5.462565
v -3.495886 1.904252 -8.276599
v 2.633371 -1.519972 15.027012
v 3.001902 -0.312920 15.325108
v 1.420200 -0.310499 15.058262
v 1.424780 -1.894503 15.311060
v 2.629990 0.902711 15.069038
v 1.420370 1.263790 15.365847
v 0.210409 -1.523710 15.047485
v -0.156754 -0.317792 15.351799
v 1.408756 1.287540 13.995768
v 1.413166 -1.870752 13.940981
v 0.198795 -1.499959 13.677408
v 2.621758 -1.496222 13.656935
v 0.195414 0.922724 13.719435
v 0.207027 0.898974 15.089512
v -0.168367 -0.294042 13.981720
vn 0.463093 -0.014700 0.886188
vn 0.391109 -0.397410 0.830120
vn -0.001400 0.999849 0.017301
vn -0.708089 0.705889 0.018200
vn 0.287693 0.311993 -0.905479
vn -0.007800 0.585695 -0.810494
vn 0.288486 -0.279586 -0.915755
vn 0.564612 0.015100 -0.825218
vn -0.303084 -0.280485 -0.910752
vn -0.006200 -0.557294 -0.830292
vn 0.001400 -0.999849 -0.017301
vn -0.706092 -0.708092 -0.006300
vn 0.706092 0.708092 0.006300
vn -0.303904 0.311004 -0.900511
vn -0.578488 0.013300 -0.815583
vn 0.999964 0.001500 -0.008400
vn -0.376909 0.368208 0.849919
vn 0.006900 0.439989 0.897977
vn 0.708089 -0.705889 -0.018200
vn -0.375799 -0.398599 0.836597
vn -0.447995 -0.016100 0.893891
vn 0.084804 0.017401 -0.996246
vn -0.074204 -0.048703 -0.996053
vn -0.999964 -0.001500 0.008400
vn -0.999963 -0.001500 0.008500
vn 0.008200 -0.470879 0.882160
vn 0.390023 0.369422 0.843451
vn -0.074499 -0.716990 0.693091
vn -0.008500 0.017300 -0.999814
vn -0.715493 -0.698593 -0.006100
vn -0.717412 0.696412 0.018200
vn -0.018200 0.998512 0.051401
vn -0.010000 0.999344 0.034802
vn -0.010500 0.999307 0.035700
vn 0.582986 -0.586386 0.562387
vn 0.573214 -0.566414 -0.592115
vn 0.801296 0.480897 -0.355898
vn 0.008500 -0.017300 0.999814
vn 0.483481 0.411184 0.772770
vn -0.593624 0.493420 0.635726
vn 0.482918 0.628124 -0.610123
vn -0.236309 0.016501 -0.971538
vn -0.219799 -0.017200 0.975394
vn 0.580506 0.591106 0.560006
vn -0.583019 0.586419 -0.562318
vn -0.008600 0.110504 -0.993838
vn 0.057398 0.083298 -0.994870
vn -0.008300 -0.075899 -0.997081
vn -0.074397 0.083097 -0.993761
vn -0.101598 0.017100 -0.994679
vn 0.057598 -0.048498 -0.997161
vn 0.294101 0.951404 0.091300
vt 0.691996 0.794383
vt 0.737244 0.794558
vt 0.744319 0.806899
vt 0.687934 0.807824
vt 0.858134 0.012046
vt 0.901195 0.000020
vt 0.901195 0.661063
vt 0.858134 0.673089
vt 0.447308 0.802560
vt 0.446208 0.757079
vt 0.460101 0.752488
vt 0.460101 0.809101
vt 0.364317 0.827739
vt 0.409187 0.826273
vt 0.413326 0.839914
vt 0.357315 0.840286
vt 0.339160 0.744823
vt 0.339959 0.789315
vt 0.325858 0.793217
vt 0.326158 0.737593
vt 0.043363 0.937593
vt 0.000000 0.949745
vt 0.000000 0.854047
vt 0.043363 0.841895
vt 0.369499 0.935980
vt 0.325858 0.948238
vt 0.325858 0.852545
vt 0.369499 0.840286
vt 0.422151 0.719643
vt 0.376981 0.720120
vt 0.372633 0.705792
vt 0.428944 0.706408
vt 0.684402 0.012152
vt 0.727765 0.000000
vt 0.727765 0.661074
vt 0.684402 0.673226
vt 0.679261 0.686628
vt 0.654880 0.725295
vt 0.641039 0.720532
vt 0.672506 0.673226
vt 0.641038 0.000000
vt 0.641038 0.661074
vt 0.412560 0.948258
vt 0.412560 0.852564
vt 0.211677 0.936659
vt 0.168313 0.948811
vt 0.168313 0.853114
vt 0.211677 0.840961
vt 0.762279 0.711717
vt 0.724048 0.688327
vt 0.728431 0.673825
vt 0.775326 0.704299
vt 0.814492 0.000000
vt 0.814492 0.661043
vt 0.081566 0.829111
vt 0.119740 0.805483
vt 0.131164 0.811615
vt 0.085301 0.841522
vt 0.771129 0.012152
vt 0.814492 0.661073
vt 0.771129 0.673226
vt 0.987624 0.673225
vt 0.943403 0.661074
vt 0.943403 0.000000
vt 0.987624 0.012152
vt 0.727765 0.661073
vt 0.901195 0.673225
vt 0.901195 0.012152
vt 0.829032 0.895289
vt 0.775326 0.883137
vt 0.775326 0.796410
vt 0.829032 0.784257
vt 0.829032 0.673226
vt 0.882739 0.685378
vt 0.882739 0.772105
vt 0.695122 0.807824
vt 0.748421 0.820145
vt 0.748421 0.906868
vt 0.695122 0.918850
vt 0.535563 0.942001
vt 0.483402 0.929849
vt 0.483402 0.843122
vt 0.535563 0.830969
vt 0.641039 0.820120
vt 0.641039 0.906844
vt 0.882739 0.883137
vt 0.882739 0.796410
vt 0.590446 0.929849
vt 0.590446 0.843122
vt 0.775326 0.685378
vt 0.775326 0.772105
vt 0.761164 0.757415
vt 0.775326 0.761116
vt 0.654225 0.769468
vt 0.641499 0.775825
vt 0.086727 0.949745
vt 0.086727 0.854047
vt 0.926960 0.768924
vt 0.882739 0.781076
vt 0.926960 0.673226
vt 0.969168 0.781076
vt 0.969168 0.685378
vt 0.255040 0.948811
vt 0.255040 0.853114
vt 0.521722 0.532435
vt 0.534349 0.520285
vt 0.601439 0.538747
vt 0.572628 0.661911
vt 0.552103 0.661922
vt 0.325858 0.339318
vt 0.325858 0.362653
vt 0.303913 0.340755
vt 0.325858 0.319107
vt 0.168313 0.694559
vt 0.140093 0.710476
vt 0.055321 0.708970
vt 0.000000 0.651701
vt 0.005554 0.338888
vt 0.156013 0.341560
vt 0.162948 0.348740
vt 0.410032 0.682726
vt 0.404630 0.705791
vt 0.399228 0.682726
vt 0.444215 0.536783
vt 0.364558 0.534704
vt 0.325858 0.369474
vt 0.461457 0.369474
vt 0.478397 0.390840
vt 0.470364 0.705792
vt 0.480627 0.754269
vt 0.460101 0.754269
vt 0.641038 0.016787
vt 0.641038 0.362396
vt 0.633979 0.369460
vt 0.483504 0.369542
vt 0.483402 0.050173
vt 0.483402 0.661922
vt 0.505818 0.661922
vt 0.483402 0.684338
vt 0.584617 0.661922
vt 0.640946 0.718251
vt 0.640946 0.803036
vt 0.624516 0.815437
vt 0.512216 0.815437
vt 0.483402 0.763114
vt 0.640946 0.661922
vt 0.325858 0.056329
vt 0.382187 0.000000
vt 0.460986 0.000000
vt 0.483402 0.022416
vt 0.483402 0.347529
vt 0.640946 0.830969
vt 0.168313 0.340755
vt 0.325858 0.687068
vt 0.303442 0.709435
vt 0.224666 0.709435
vt 0.168313 0.659530
vt 0.172342 0.707548
vt 0.168313 0.209506
vt 0.168313 0.186938
vt 0.185316 0.190272
vt 0.640973 0.369287
vt 0.639432 0.376331
vt 0.163197 0.334748
vt 0.008514 0.172189
vt 0.166107 0.170861
vt 0.325858 0.171239
vt 0.011166 0.022850
vt 0.035264 0.000000
vt 0.124102 0.001577
vt 0.168313 0.046583
vt 0.168313 0.044395
vt 0.213316 0.000000
vt 0.302168 0.000000
vt 0.325858 0.023370
vt 0.168313 0.175645
vt 0.518173 0.517598
vt 0.513884 0.499028
vt 0.299521 0.714817
vt 0.304921 0.709436
vt 0.304921 0.719406
vt 0.168771 0.740530
vt 0.214296 0.709436
vt 0.234146 0.775661
vt 0.168314 0.794563
vt 0.269418 0.710362
vt 0.299522 0.755235
vt 0.198874 0.840961
vt 0.253539 0.840362
vt 0.118743 0.760000
vt 0.131164 0.756262
vt 0.011722 0.747504
vt 0.012421 0.791997
vt 0.000000 0.795735
vt 0.000298 0.741371
vt 0.954157 0.886148
vt 0.942158 0.939052
vt 0.882738 0.939066
vt 0.894737 0.886161
vt 0.942160 0.833612
vt 0.954313 0.886148
vt 0.894890 0.886148
vt 0.882738 0.833612
vt 0.954313 0.781076
vt 0.894890 0.781076
vt 0.146151 0.894431
vt 0.158302 0.946967
vt 0.098879 0.946967
vt 0.086727 0.894431
vt 0.954157 0.991190
vt 0.894737 0.991203
vt 0.846901 0.895289
vt 0.834747 0.948966
vt 0.775326 0.948966
vt 0.787477 0.895289
vt 0.846901 1.000000
vt 0.787477 1.000000
vt 0.158302 0.841895
vt 0.098879 0.841895
vt 0.036692 0.830476
vt 0.030550 0.841895
vt 0.049598 0.722886
vt 0.045863 0.710476
vt 0.299522 0.810793
vt 0.094770 0.722511
vt 0.100912 0.711092
vt 0.624455 0.000000
vt 0.512160 0.000061
f 1/1/1 2/2/2 3/3/2 4/4/1
f 5/5/3 6/6/4 7/7/4 8/8/3
f 9/9/5 10/10/6 11/11/6 12/12/5
f 13/13/7 14/14/8 15/15/8 16/16/7
f 17/17/9 18/18/10 19/19/10 20/20/9
f 10/21/11 9/22/12 21/23/12 22/24/11
f 18/25/3 17/26/13 23/27/13 24/28/3
f 25/29/14 26/30/15 27/31/15 28/32/14
f 1/33/16 29/34/13 30/35/13 31/36/16
f 6/37/17 5/38/18 32/39/18 33/40/17
f 2/41/19 1/33/16 31/36/16 34/42/19
f 13/43/4 18/25/3 24/28/3 35/44/4
f 26/45/16 25/46/19 36/47/19 37/48/16
f 10/10/6 25/29/14 28/32/14 11/11/6
f 38/49/20 39/50/21 40/51/21 41/52/20
f 29/53/13 5/5/3 8/8/3 30/54/13
f 31/55/22 30/56/23 42/57/23 43/58/22
f 44/59/11 2/53/19 34/60/19 45/61/11
f 6/62/4 39/63/24 46/64/24 7/65/4
f 38/34/12 44/59/11 45/61/11 47/66/12
f 39/63/24 38/67/12 47/68/12 46/64/24
f 11/69/11 28/70/19 3/71/19 48/72/11
f 4/73/16 3/74/19 28/75/19 27/72/16
f 19/76/3 16/77/4 33/78/4 32/79/3
f 15/80/25 12/81/12 41/82/12 40/83/25
f 20/84/13 19/76/3 32/79/3 49/85/13
f 12/86/12 11/69/11 48/72/11 41/87/12
f 16/88/4 15/80/25 40/83/25 33/89/4
f 49/90/13 4/73/16 27/72/16 20/91/13
f 39/50/21 6/37/17 33/40/17 40/51/21
f 18/18/10 13/13/7 16/16/7 19/19/10
f 26/30/15 17/17/9 20/20/9 27/31/15
f 14/14/8 9/9/5 12/12/5 15/15/8
f 44/92/26 38/49/20 41/52/20 48/93/26
f 2/2/2 44/92/26 48/93/26 3/3/2
f 29/94/27 1/1/1 4/4/1 49/95/27
f 5/38/18 29/94/27 49/95/27 32/39/18
f 25/96/19 10/21/11 22/24/11 36/97/19
f 14/98/25 13/99/4 35/74/4 50/100/25
f 9/101/12 14/98/25 50/100/25 21/102/12
f 17/103/13 26/45/16 37/48/16 23/104/13
f 51/105/3 52/106/3 53/107/3 54/108/3 55/109/3
f 56/110/28 57/111/28 58/112/28 59/113/28
f 60/114/29 61/115/29 62/116/29 63/117/29 64/118/29 65/119/29 66/120/29
f 67/121/30 68/122/30 69/123/30
f 70/124/11 71/125/11 64/126/11 56/127/11 59/128/11
f 72/129/31 55/130/31 54/131/31
f 60/132/32 66/133/32 73/134/33 74/135/34 75/136/32
f 76/137/35 77/138/35 78/139/35
f 78/139/16 77/138/16 79/140/16 62/141/16 61/142/16 80/143/16 81/144/16 82/145/16
f 63/146/36 62/141/36 79/140/36
f 64/126/11 63/147/11 79/148/11 77/149/11 76/150/11 57/151/11 56/127/11
f 60/152/37 80/143/37 61/142/37
f 74/153/38 58/112/38 57/111/38 76/154/38 78/155/38 82/156/38 75/157/38
f 75/157/39 82/156/39 81/158/39
f 83/159/40 52/160/40 84/161/40
f 65/162/41 85/163/41 73/134/41
f 85/164/42 65/119/42 64/118/42 71/165/42 53/166/42
f 83/159/43 84/161/43 70/167/43 59/113/43 58/112/43 74/153/43
f 67/121/11 69/123/11 71/125/11 70/124/11
f 53/166/42 71/165/42 69/168/42 68/169/42 72/170/42 54/171/42
f 55/172/43 72/173/43 68/174/43 67/175/43 70/167/43 84/161/43 51/176/43
f 52/106/44 51/105/44 84/177/44
f 73/134/33 85/163/3 53/107/3 52/106/3 83/178/3 74/135/34
f 66/179/45 65/180/45 73/181/45
f 86/182/38 87/183/38 88/184/38 89/185/38
f 90/186/38 91/187/38 88/184/38 87/183/38
f 92/188/38 89/185/38 88/184/38 93/189/38
f 30/56/23 8/190/46 94/191/46 42/57/23
f 47/192/47 45/193/48 95/194/48 96/195/47
f 42/196/13 94/197/3 91/198/3 90/199/13
f 43/200/16 42/201/13 90/202/13 87/203/16
f 97/204/19 43/200/16 87/203/16 86/205/19
f 95/206/11 97/207/19 86/208/19 89/209/11
f 94/197/3 98/210/4 99/211/4 91/198/3
f 98/212/4 100/213/24 93/214/24 99/215/4
f 100/213/24 96/216/12 92/217/12 93/214/24
f 96/218/12 95/206/11 89/209/11 92/219/12
f 34/220/49 31/55/22 43/58/22 97/221/49
f 46/222/50 47/192/47 96/195/47 100/223/50
f 99/224/38 93/189/38 88/184/38 91/187/38
f 7/225/51 46/222/50 100/223/50 98/226/51
f 45/193/48 34/220/49 97/221/49 95/194/48
f 8/190/46 7/225/51 98/226/51 94/191/46
f 80/227/52 60/132/52 75/136/52 81/228/52
